<svg width="30" height="30" viewBox="0 0 30 30" fill="none" xmlns="http://www.w3.org/2000/svg">
<path d="M23.175 5.21249L16.3 2.63749C15.5875 2.37499 14.425 2.37499 13.7125 2.63749L6.8375 5.21249C5.5125 5.71249 4.4375 7.26249 4.4375 8.67499V18.8C4.4375 19.8125 5.1 21.15 5.9125 21.75L12.7875 26.8875C14 27.8 15.9875 27.8 17.2 26.8875L24.075 21.75C24.8875 21.1375 25.55 19.8125 25.55 18.8V8.67499C25.5625 7.26249 24.4875 5.71249 23.175 5.21249ZM15.9375 16.0875V19.375C15.9375 19.8875 15.5125 20.3125 15 20.3125C14.4875 20.3125 14.0625 19.8875 14.0625 19.375V16.0875C12.8 15.6875 11.875 14.5125 11.875 13.125C11.875 11.4 13.275 9.99999 15 9.99999C16.725 9.99999 18.125 11.4 18.125 13.125C18.125 14.525 17.2 15.6875 15.9375 16.0875Z" fill="url(#paint0_linear_409_1503)"/>
<defs>
<linearGradient id="paint0_linear_409_1503" x1="8.25001" y1="2.99999" x2="29.25" y2="35.25" gradientUnits="userSpaceOnUse">
<stop stop-color="#5C9DFF"/>
<stop offset="1" stop-color="#0D3F8B"/>
</linearGradient>
</defs>
</svg>
